<svg xmlns="http://www.w3.org/2000/svg" viewBox="0 0 128 128">
  <defs>
    <linearGradient id="g" x1="0%" y1="0%" x2="100%" y2="100%">
      <stop offset="0%" stop-color="#74a7ff" />
      <stop offset="100%" stop-color="#1e5fff" />
    </linearGradient>
  </defs>
  <rect width="128" height="128" rx="28" fill="url(#g)" />
  <path
    fill="#fff"
    d="M38 84.5c0-4 2.1-7.5 5.5-9.5l22-12.7c1.3-.8 2.5-2.3 2.5-4s-1.2-3.3-2.6-4.1L43.4 41.3c-3.4-1.9-5.4-5.5-5.4-9.4 0-6.8 5.5-12.3 12.3-12.3 2.1 0 4.1.5 6 1.6l30.2 17.4c6.8 3.9 11 10.5 11 18.4s-4.1 14.4-10.9 18.3L56.3 92.7c-1.8 1.1-3.9 1.6-6 1.6-6.8.1-12.3-5.4-12.3-12.1Z"
  />
</svg>
